<mxfile host="app.diagrams.net" modified="2024-01-11T22:03:24.173Z" agent="Mozilla/5.0 (Windows NT 10.0; Win64; x64) AppleWebKit/537.36 (KHTML, like Gecko) Chrome/120.0.0.0 Safari/537.36" version="22.1.18" etag="9pG3g6tZ77xsZe3maujq" type="github">
  <diagram name="Page-1" id="-vn8wbZ1aW6TZSsEp_I8">
    <mxGraphModel>
      <root>
        <mxCell id="0" />
        <mxCell id="1" parent="0" />
      </root>
    </mxGraphModel>
  </diagram>
</mxfile>
